<mxfile host="65bd71144e">
    <diagram id="c3HulzmsumwLP3YGqqfk" name="Page-1">
        <mxGraphModel dx="884" dy="413" grid="1" gridSize="10" guides="1" tooltips="1" connect="1" arrows="1" fold="1" page="1" pageScale="1" pageWidth="1169" pageHeight="827" math="0" shadow="0">
            <root>
                <mxCell id="0"/>
                <mxCell id="1" parent="0"/>
                <mxCell id="hmPDMSKpX-r3w1oSs784-1" value="&lt;b style=&quot;font-size: 14px&quot;&gt;2 - Battery space&lt;/b&gt;" style="rounded=1;whiteSpace=wrap;html=1;fontSize=14;" parent="1" vertex="1">
                    <mxGeometry x="200" y="40" width="120" height="60" as="geometry"/>
                </mxCell>
                <mxCell id="hmPDMSKpX-r3w1oSs784-2" value="&lt;b style=&quot;font-size: 14px&quot;&gt;3 - Top left cupboard&lt;/b&gt;" style="rounded=1;whiteSpace=wrap;html=1;fontSize=14;" parent="1" vertex="1">
                    <mxGeometry x="360" y="40" width="120" height="60" as="geometry"/>
                </mxCell>
                <mxCell id="hmPDMSKpX-r3w1oSs784-3" value="&lt;b style=&quot;font-size: 14px&quot;&gt;4 - Top right cupboard&lt;/b&gt;" style="rounded=1;whiteSpace=wrap;html=1;fontSize=14;" parent="1" vertex="1">
                    <mxGeometry x="521" y="40" width="120" height="60" as="geometry"/>
                </mxCell>
                <mxCell id="hmPDMSKpX-r3w1oSs784-4" value="&lt;b style=&quot;font-size: 14px&quot;&gt;1 - Domotica hub&lt;/b&gt;" style="rounded=1;whiteSpace=wrap;html=1;fontSize=14;" parent="1" vertex="1">
                    <mxGeometry x="40" y="40" width="120" height="60" as="geometry"/>
                </mxCell>
                <mxCell id="hmPDMSKpX-r3w1oSs784-5" value="" style="shape=image;html=1;verticalAlign=top;verticalLabelPosition=bottom;labelBackgroundColor=#ffffff;imageAspect=0;aspect=fixed;image=https://cdn2.iconfinder.com/data/icons/rental-icon/240/wifi-128.png" parent="1" vertex="1">
                    <mxGeometry x="40" y="120" width="30" height="30" as="geometry"/>
                </mxCell>
                <mxCell id="hmPDMSKpX-r3w1oSs784-25" value="" style="dashed=0;aspect=fixed;verticalLabelPosition=bottom;verticalAlign=top;align=center;shape=mxgraph.gmdl.gps;strokeColor=#737373;fillColor=#737373;shadow=0;strokeWidth=2;" parent="1" vertex="1">
                    <mxGeometry x="40" y="200" width="30" height="30" as="geometry"/>
                </mxCell>
                <mxCell id="hmPDMSKpX-r3w1oSs784-27" value="" style="shape=image;html=1;verticalAlign=top;verticalLabelPosition=bottom;labelBackgroundColor=#ffffff;imageAspect=0;aspect=fixed;image=https://cdn2.iconfinder.com/data/icons/weather-74/24/weather-25-128.png" parent="1" vertex="1">
                    <mxGeometry x="200" y="160" width="30" height="30" as="geometry"/>
                </mxCell>
                <mxCell id="hmPDMSKpX-r3w1oSs784-28" value="" style="shape=image;html=1;verticalAlign=top;verticalLabelPosition=bottom;labelBackgroundColor=#ffffff;imageAspect=0;aspect=fixed;image=https://cdn2.iconfinder.com/data/icons/ios-7-icons/50/car_battery-128.png" parent="1" vertex="1">
                    <mxGeometry x="200" y="200" width="30" height="30" as="geometry"/>
                </mxCell>
                <mxCell id="hmPDMSKpX-r3w1oSs784-29" value="" style="pointerEvents=1;verticalLabelPosition=bottom;shadow=0;dashed=0;align=center;html=1;verticalAlign=top;shape=mxgraph.electrical.electro-mechanical.pushbutton_make;" parent="1" vertex="1">
                    <mxGeometry x="360" y="200" width="30" height="20" as="geometry"/>
                </mxCell>
                <mxCell id="hmPDMSKpX-r3w1oSs784-35" value="" style="shape=image;html=1;verticalAlign=top;verticalLabelPosition=bottom;labelBackgroundColor=#ffffff;imageAspect=0;aspect=fixed;image=https://cdn2.iconfinder.com/data/icons/electronic-13/480/6-electronic-led-icon-2-128.png" parent="1" vertex="1">
                    <mxGeometry x="360" y="160" width="30" height="30" as="geometry"/>
                </mxCell>
                <mxCell id="hmPDMSKpX-r3w1oSs784-36" value="" style="shape=image;html=1;verticalAlign=top;verticalLabelPosition=bottom;labelBackgroundColor=#ffffff;imageAspect=0;aspect=fixed;image=https://cdn2.iconfinder.com/data/icons/doing-housework-part-1/64/house-09-128.png" parent="1" vertex="1">
                    <mxGeometry x="521" y="200" width="30" height="30" as="geometry"/>
                </mxCell>
                <mxCell id="hmPDMSKpX-r3w1oSs784-38" value="" style="shape=image;html=1;verticalAlign=top;verticalLabelPosition=bottom;labelBackgroundColor=#ffffff;imageAspect=0;aspect=fixed;image=https://cdn2.iconfinder.com/data/icons/rental-icon/240/wifi-128.png" parent="1" vertex="1">
                    <mxGeometry x="40" y="160" width="30" height="30" as="geometry"/>
                </mxCell>
                <mxCell id="hmPDMSKpX-r3w1oSs784-39" value="" style="shape=image;html=1;verticalAlign=top;verticalLabelPosition=bottom;labelBackgroundColor=#ffffff;imageAspect=0;aspect=fixed;image=https://cdn2.iconfinder.com/data/icons/rental-icon/240/wifi-128.png" parent="1" vertex="1">
                    <mxGeometry x="200" y="120" width="30" height="30" as="geometry"/>
                </mxCell>
                <mxCell id="hmPDMSKpX-r3w1oSs784-40" value="" style="shape=image;html=1;verticalAlign=top;verticalLabelPosition=bottom;labelBackgroundColor=#ffffff;imageAspect=0;aspect=fixed;image=https://cdn2.iconfinder.com/data/icons/rental-icon/240/wifi-128.png" parent="1" vertex="1">
                    <mxGeometry x="360" y="120" width="30" height="30" as="geometry"/>
                </mxCell>
                <mxCell id="hmPDMSKpX-r3w1oSs784-41" value="" style="shape=image;html=1;verticalAlign=top;verticalLabelPosition=bottom;labelBackgroundColor=#ffffff;imageAspect=0;aspect=fixed;image=https://cdn2.iconfinder.com/data/icons/rental-icon/240/wifi-128.png" parent="1" vertex="1">
                    <mxGeometry x="521" y="120" width="30" height="30" as="geometry"/>
                </mxCell>
                <mxCell id="2" value="Uplink" style="text;html=1;align=left;verticalAlign=middle;resizable=0;points=[];autosize=1;" parent="1" vertex="1">
                    <mxGeometry x="80" y="120" width="50" height="20" as="geometry"/>
                </mxCell>
                <mxCell id="hmPDMSKpX-r3w1oSs784-42" value="Local AP" style="text;html=1;align=left;verticalAlign=middle;resizable=0;points=[];autosize=1;" parent="1" vertex="1">
                    <mxGeometry x="80" y="160" width="60" height="20" as="geometry"/>
                </mxCell>
                <mxCell id="hmPDMSKpX-r3w1oSs784-43" value="GPS Module" style="text;html=1;align=left;verticalAlign=middle;resizable=0;points=[];autosize=1;" parent="1" vertex="1">
                    <mxGeometry x="80" y="200" width="80" height="20" as="geometry"/>
                </mxCell>
                <mxCell id="hmPDMSKpX-r3w1oSs784-44" value="Local client" style="text;html=1;align=left;verticalAlign=middle;resizable=0;points=[];autosize=1;" parent="1" vertex="1">
                    <mxGeometry x="240" y="120" width="80" height="20" as="geometry"/>
                </mxCell>
                <mxCell id="hmPDMSKpX-r3w1oSs784-45" value="Local client" style="text;html=1;align=left;verticalAlign=middle;resizable=0;points=[];autosize=1;" parent="1" vertex="1">
                    <mxGeometry x="400" y="120" width="80" height="20" as="geometry"/>
                </mxCell>
                <mxCell id="hmPDMSKpX-r3w1oSs784-46" value="Local client" style="text;html=1;align=left;verticalAlign=middle;resizable=0;points=[];autosize=1;" parent="1" vertex="1">
                    <mxGeometry x="561" y="120" width="80" height="20" as="geometry"/>
                </mxCell>
                <mxCell id="hmPDMSKpX-r3w1oSs784-47" value="" style="pointerEvents=1;verticalLabelPosition=bottom;shadow=0;dashed=0;align=center;html=1;verticalAlign=top;shape=mxgraph.electrical.electro-mechanical.pushbutton_make;" parent="1" vertex="1">
                    <mxGeometry x="360" y="240" width="30" height="20" as="geometry"/>
                </mxCell>
                <mxCell id="hmPDMSKpX-r3w1oSs784-48" value="Temperature and&lt;br&gt;humidity sensor" style="text;html=1;align=left;verticalAlign=middle;resizable=0;points=[];autosize=1;" parent="1" vertex="1">
                    <mxGeometry x="240" y="160" width="110" height="30" as="geometry"/>
                </mxCell>
                <mxCell id="hmPDMSKpX-r3w1oSs784-49" value="Current and voltage&lt;br&gt;sensor" style="text;html=1;align=left;verticalAlign=middle;resizable=0;points=[];autosize=1;" parent="1" vertex="1">
                    <mxGeometry x="240" y="200" width="120" height="30" as="geometry"/>
                </mxCell>
                <mxCell id="hmPDMSKpX-r3w1oSs784-50" value="Ledstrip" style="text;html=1;align=left;verticalAlign=middle;resizable=0;points=[];autosize=1;" parent="1" vertex="1">
                    <mxGeometry x="400" y="160" width="60" height="20" as="geometry"/>
                </mxCell>
                <mxCell id="hmPDMSKpX-r3w1oSs784-51" value="Illuminated&lt;br&gt;pushbutton&amp;nbsp;" style="text;html=1;align=left;verticalAlign=middle;resizable=0;points=[];autosize=1;" parent="1" vertex="1">
                    <mxGeometry x="400" y="200" width="80" height="30" as="geometry"/>
                </mxCell>
                <mxCell id="hmPDMSKpX-r3w1oSs784-53" value="Illuminated&lt;br&gt;pushbutton&amp;nbsp;" style="text;html=1;align=left;verticalAlign=middle;resizable=0;points=[];autosize=1;" parent="1" vertex="1">
                    <mxGeometry x="400" y="240" width="80" height="30" as="geometry"/>
                </mxCell>
                <mxCell id="hmPDMSKpX-r3w1oSs784-54" value="" style="pointerEvents=1;verticalLabelPosition=bottom;shadow=0;dashed=0;align=center;html=1;verticalAlign=top;shape=mxgraph.electrical.electro-mechanical.pushbutton_make;" parent="1" vertex="1">
                    <mxGeometry x="521" y="240" width="30" height="20" as="geometry"/>
                </mxCell>
                <mxCell id="hmPDMSKpX-r3w1oSs784-55" value="" style="shape=image;html=1;verticalAlign=top;verticalLabelPosition=bottom;labelBackgroundColor=#ffffff;imageAspect=0;aspect=fixed;image=https://cdn2.iconfinder.com/data/icons/electronic-13/480/6-electronic-led-icon-2-128.png" parent="1" vertex="1">
                    <mxGeometry x="521" y="160" width="30" height="30" as="geometry"/>
                </mxCell>
                <mxCell id="hmPDMSKpX-r3w1oSs784-56" value="" style="pointerEvents=1;verticalLabelPosition=bottom;shadow=0;dashed=0;align=center;html=1;verticalAlign=top;shape=mxgraph.electrical.electro-mechanical.pushbutton_make;" parent="1" vertex="1">
                    <mxGeometry x="521" y="280" width="30" height="20" as="geometry"/>
                </mxCell>
                <mxCell id="hmPDMSKpX-r3w1oSs784-57" value="Ledstrip" style="text;html=1;align=left;verticalAlign=middle;resizable=0;points=[];autosize=1;" parent="1" vertex="1">
                    <mxGeometry x="561" y="160" width="60" height="20" as="geometry"/>
                </mxCell>
                <mxCell id="hmPDMSKpX-r3w1oSs784-58" value="Illuminated&lt;br&gt;pushbutton&amp;nbsp;" style="text;html=1;align=left;verticalAlign=middle;resizable=0;points=[];autosize=1;" parent="1" vertex="1">
                    <mxGeometry x="561" y="240" width="80" height="30" as="geometry"/>
                </mxCell>
                <mxCell id="hmPDMSKpX-r3w1oSs784-59" value="Illuminated&lt;br&gt;pushbutton&amp;nbsp;" style="text;html=1;align=left;verticalAlign=middle;resizable=0;points=[];autosize=1;" parent="1" vertex="1">
                    <mxGeometry x="561" y="280" width="80" height="30" as="geometry"/>
                </mxCell>
                <mxCell id="hmPDMSKpX-r3w1oSs784-60" value="Led spots" style="text;html=1;align=left;verticalAlign=middle;resizable=0;points=[];autosize=1;" parent="1" vertex="1">
                    <mxGeometry x="561" y="200" width="70" height="20" as="geometry"/>
                </mxCell>
                <mxCell id="3" value="&lt;b style=&quot;font-size: 14px&quot;&gt;5 -&amp;nbsp;&lt;/b&gt;&lt;b&gt;Refrigerator&lt;/b&gt;" style="rounded=1;whiteSpace=wrap;html=1;fontSize=14;" vertex="1" parent="1">
                    <mxGeometry x="680" y="40" width="120" height="60" as="geometry"/>
                </mxCell>
                <mxCell id="5" value="" style="shape=image;html=1;verticalAlign=top;verticalLabelPosition=bottom;labelBackgroundColor=#ffffff;imageAspect=0;aspect=fixed;image=https://cdn2.iconfinder.com/data/icons/rental-icon/240/wifi-128.png" vertex="1" parent="1">
                    <mxGeometry x="680" y="120" width="30" height="30" as="geometry"/>
                </mxCell>
                <mxCell id="6" value="Local client" style="text;html=1;align=left;verticalAlign=middle;resizable=0;points=[];autosize=1;" vertex="1" parent="1">
                    <mxGeometry x="720" y="120" width="80" height="20" as="geometry"/>
                </mxCell>
                <mxCell id="18" value="" style="pointerEvents=1;verticalLabelPosition=bottom;shadow=0;dashed=0;align=center;html=1;verticalAlign=top;shape=mxgraph.electrical.electro-mechanical.2-way_switch;" vertex="1" parent="1">
                    <mxGeometry x="186.92" y="250" width="46.15" height="16" as="geometry"/>
                </mxCell>
                <mxCell id="19" value="Balancer relay" style="text;html=1;align=left;verticalAlign=middle;resizable=0;points=[];autosize=1;" vertex="1" parent="1">
                    <mxGeometry x="238.07" y="249" width="90" height="20" as="geometry"/>
                </mxCell>
                <mxCell id="25" value="" style="shape=image;html=1;verticalAlign=top;verticalLabelPosition=bottom;labelBackgroundColor=#ffffff;imageAspect=0;aspect=fixed;image=https://cdn2.iconfinder.com/data/icons/weather-74/24/weather-25-128.png" vertex="1" parent="1">
                    <mxGeometry x="683.0799999999999" y="157" width="30" height="30" as="geometry"/>
                </mxCell>
                <mxCell id="26" value="" style="shape=image;html=1;verticalAlign=top;verticalLabelPosition=bottom;labelBackgroundColor=#ffffff;imageAspect=0;aspect=fixed;image=https://cdn2.iconfinder.com/data/icons/ios-7-icons/50/car_battery-128.png" vertex="1" parent="1">
                    <mxGeometry x="683.0799999999999" y="197" width="30" height="30" as="geometry"/>
                </mxCell>
                <mxCell id="27" value="Temperature and&lt;br&gt;humidity sensor" style="text;html=1;align=left;verticalAlign=middle;resizable=0;points=[];autosize=1;" vertex="1" parent="1">
                    <mxGeometry x="723.0799999999999" y="157" width="110" height="30" as="geometry"/>
                </mxCell>
                <mxCell id="28" value="Current and voltage&lt;br&gt;sensor" style="text;html=1;align=left;verticalAlign=middle;resizable=0;points=[];autosize=1;" vertex="1" parent="1">
                    <mxGeometry x="723.0799999999999" y="197" width="120" height="30" as="geometry"/>
                </mxCell>
                <mxCell id="30" value="Compressor relay" style="text;html=1;align=left;verticalAlign=middle;resizable=0;points=[];autosize=1;" vertex="1" parent="1">
                    <mxGeometry x="722.15" y="246" width="110" height="20" as="geometry"/>
                </mxCell>
                <mxCell id="31" value="" style="shape=mxgraph.pid.compressors_-_iso.compressor,_vacuum_pump;html=1;pointerEvents=1;align=center;verticalLabelPosition=bottom;verticalAlign=top;dashed=0;" vertex="1" parent="1">
                    <mxGeometry x="687.08" y="242" width="26" height="26" as="geometry"/>
                </mxCell>
            </root>
        </mxGraphModel>
    </diagram>
</mxfile>